<?xml version="1.0" encoding="utf-8"?>
<!-- Generator: Adobe Illustrator 26.4.1, SVG Export Plug-In . SVG Version: 6.00 Build 0)  -->
<svg version="1.1" id="Layer_1" xmlns="http://www.w3.org/2000/svg" xmlns:xlink="http://www.w3.org/1999/xlink" x="0px" y="0px"
	 viewBox="0 0 104.9 80.5" style="enable-background:new 0 0 104.9 80.5;" xml:space="preserve">
<style type="text/css">
	.st0{fill:#FFFFFF;}
</style>
<path class="st0" d="M104.9,51l-0.2-1.7l-1.9-15.9l-0.1-0.8l-0.1-0.5c0-0.4-0.2-0.7-0.6-0.9l-0.6-0.3l-5.2-3l-2.2-1.3
	c-0.2-0.1-0.4-0.2-0.6-0.2c-0.1,0-0.2,0-0.3,0.1c-0.3,0.1-0.5,0.3-0.7,0.6l-1.7,3.8c-0.1,0.2-0.3,0.1-0.4-0.1L90,26.1v-1.2
	c0-0.4-0.2-0.8-0.6-1L62.6,8.5c-0.2-0.1-0.4-0.2-0.6-0.2c-0.1,0-0.1,0-0.2,0L58,8.9c-0.4,0.1-0.8-0.2-0.9-0.6L57,6.9l-0.2-1.3
	c0-0.3-0.2-0.6-0.5-0.8l-6.9-3.9c-0.2-0.1-0.4-0.2-0.6-0.2c-0.2,0-0.4,0.1-0.6,0.2l-9.4,5.4L38,6.8c-0.3,0.2-0.5,0.4-0.5,0.7
	l-0.3,1.3l-0.6,2.2l-0.1,0.4c-0.1,0.6-0.6,1-1.2,1.1l-9.6,1.5c-0.4,0.1-0.7,0.3-0.9,0.6l-6.3,13.4c-0.2,0.4-0.7,0.3-0.8-0.1
	l-0.6-3.6l-0.6-3.3c-0.1-0.4-0.3-0.7-0.6-0.8c-0.2-0.1-0.3-0.1-0.5-0.1c-0.2,0-0.4,0.1-0.6,0.2L3.8,26.4l-1,0.6
	c-0.3,0.2-0.5,0.5-0.5,0.8l-0.2,1.3L0.2,45.1L0,46.7c-0.1,0.5,0.2,0.9,0.6,1.1l10.7,6.2c0.2,0.1,0.4,0.2,0.6,0.2
	c0.1,0,0.2,0,0.3-0.1c0.3-0.1,0.5-0.3,0.7-0.6l0.5-1l0,0.5c0,0,0,0,0,0v1.6c0,0.4,0.2,0.8,0.6,1l28,16.2c0.2,0.1,0.4,0.2,0.6,0.2
	c0.1,0,0.1,0,0.2,0l2.1-0.3c0.3-0.1,0.6,0.2,0.6,0.6v1c0,0.4,0.2,0.8,0.6,1l9.6,5.6c0.2,0.1,0.4,0.2,0.6,0.2c0.2,0,0.4-0.1,0.6-0.2
	l13.9-8l1.1-0.7c0.3-0.2,0.5-0.6,0.5-1v-2.1c0-0.3,0.2-0.6,0.5-0.6l7.6-1.2c0.4-0.1,0.7-0.3,0.9-0.6l4.2-9.1l0,0.1l-0.1,0.5
	l-0.6,4.5c-0.1,0.4,0.1,0.9,0.5,1.1c0.2,0.1,0.4,0.2,0.6,0.2c0.2,0,0.4-0.1,0.6-0.2l0.6-0.3l3-1.7l14.4-8.3
	C104.7,51.8,104.9,51.4,104.9,51z M14.3,23.7l-3.7,7.9c-0.1,0.1-0.2,0.3-0.4,0.3c-0.1,0-0.1,0-0.2,0c-0.1,0-0.2,0-0.3-0.1l-5-2.9
	c-0.2-0.1-0.3-0.3-0.3-0.5c0-0.2,0.1-0.4,0.3-0.5l8.6-5c0.2-0.1,0.5-0.1,0.7,0.1C14.4,23.2,14.4,23.5,14.3,23.7z M40.3,7.7L48.5,3
	c0.2-0.1,0.4-0.1,0.6,0l4.7,2.7c0.2,0.1,0.3,0.4,0.3,0.6c0,0.2-0.2,0.4-0.5,0.5l-6.7,1c0,0-0.1,0-0.1,0l-6.2,1c0,0-0.1,0-0.1,0
	c-0.2,0-0.5-0.2-0.5-0.4C39.9,8.2,40,7.9,40.3,7.7z M67.3,52.4l-10.7,6.2c-0.1,0.1-0.2,0.1-0.4,0.1s-0.3,0-0.4-0.1L49.7,55
	c-0.3-0.2-0.4-0.5-0.4-0.8c0.1-0.3,0.3-0.5,0.6-0.6L66.8,51c0.3,0,0.7,0.1,0.8,0.5C67.8,51.8,67.6,52.2,67.3,52.4z M87.1,25.8
	l-1.8,4c0,0,0,0.1,0,0.1L78,45.5c-0.1,0.2-0.2,0.3-0.4,0.3l-34.3,5.3c0,0-0.1,0-0.1,0c-0.1,0-0.2,0-0.3-0.1L18,36.6
	c-0.3-0.2-0.4-0.5-0.2-0.7l0.3-0.6L27,16.2c0.1-0.2,0.2-0.3,0.4-0.3l34.1-5.2c0.1,0,0.3,0,0.4,0.1l25,14.4
	C87.1,25.2,87.2,25.5,87.1,25.8z M99.8,33.5l-9.4,5.5C90.3,39,90.2,39,90.1,39c-0.2,0-0.3-0.1-0.4-0.2c-0.2-0.2-0.3-0.5-0.2-0.7
	l3.9-8.6c0.1-0.2,0.2-0.3,0.4-0.4c0.2-0.1,0.4,0,0.5,0.1l5.4,3.1c0.2,0.1,0.3,0.3,0.3,0.6C100.1,33.1,100,33.3,99.8,33.5z"/>
</svg>
